<?xml version="1.0" encoding="utf-8"?>
<!-- Generator: Adobe Illustrator 23.0.0, SVG Export Plug-In . SVG Version: 6.00 Build 0)  -->
<svg version="1.1" id="Layer_1" xmlns="http://www.w3.org/2000/svg" xmlns:xlink="http://www.w3.org/1999/xlink" x="0px" y="0px"
	 viewBox="0 0 614.8 205.9" style="enable-background:new 0 0 614.8 205.9;" xml:space="preserve">
<style type="text/css">
	.st0{fill:none;stroke:#000000;stroke-linecap:round;stroke-linejoin:round;stroke-miterlimit:10;}
	.st1{fill:#F98C23;}
	.st2{fill:#FFFFFF;}
</style>
<g>
	<g>
		<path d="M386.9,47.1c-13.1,0-21.1,7.6-24.3,12.6h-0.5l-1.1-10.8h-21.3c0.3,6.9,0.6,15.3,0.6,25.1v20.7
			c-2.8-6.7-9.1-11.5-19.7-15.2c-9.7-3.4-12.7-5.3-12.7-9c0-4,3.4-6.4,9.4-6.4c6.8,0,13.5,2.6,17.1,4.5l4.4-16.9
			c-4.8-2.4-13.1-4.5-22.2-4.5c-17.1,0-28.8,8.5-31.5,20.6c-5.2-12.9-16-20.6-29.2-20.6c-10.9,0-19.2,4.4-23.9,11.1h-0.3v-45H207v54
			c-3.7-13.8-13.2-20.2-24.9-20.2c-5.8,0-10.6,1.3-15,3.9c-3.7,2.3-7.2,5.3-10.2,9.5h-0.3c-3.4-8.2-11.4-13.4-21.6-13.4
			c-13.5,0-20.5,7.4-23.9,12.4h-0.5l-1.1-10.7H88.9c0.2,5.3,0.5,11.5,0.6,18.5c-3.7-11.8-13.4-20.2-32.7-20.2
			c-14.4,0-25.2,3.9-30.6,6.9l4.5,15.8c5.2-3.2,13.7-6,21.8-6c12.1,0,14.3,6,14.3,10.2v1.1c-27.9-0.2-46.3,9.7-46.3,30.1
			c0,12.6,9.5,24.2,25.5,24.2c9.4,0,17.4-3.4,22.6-9.7H69l1.5,7.9h42.9v-46c0-1.9,0.1-4.2,1-6.1c1.5-4,5.2-8.9,11.4-8.9
			c7.7,0,11.3,6.8,11.3,16.8v44.2H161V81.6c0-2,0.3-4.5,1-6.3c1.6-4.7,5.6-8.6,11.3-8.6c7.9,0,11.6,6.6,11.6,18.1v42.9h42.3l1-11
			h0.3c5.7,9.4,14.5,12.7,23.7,12.7c18,0,36.1-14.2,36.1-42.6c0-0.7,0-1.3,0-2c3.5,4.6,9.4,8.7,18.4,11.7c9.2,3.1,11.6,5,11.6,9
			c0,4-3.1,6.6-10.5,6.6c-7.3,0-16.6-3.2-21.1-6l-4.4,17.6c6,3.2,15.1,5.7,25.5,5.7c17.5,0,28.4-6.6,32.4-16.3v14.6h24.5V82.3
			c0-2.3,0.3-4.5,1-6.1c1.6-4.5,5.7-9.2,12.4-9.2c8.9,0,12.4,6.9,12.4,17.1v43.7h24.5V81C415.1,57.8,403,47.1,386.9,47.1z M67.6,99
			c0,1.5-0.1,2.9-0.5,4.2c-1.6,5-6.6,9-12.8,9c-5.5,0-9.7-3-9.7-9.3c0-9.5,10-12.6,22.9-12.4V99z M246.3,110.2
			c-7.1,0-12.7-5-14.3-11.6c-0.3-1.3-0.5-2.7-0.5-4.3V82.6c0-1.6,0.1-3.1,0.5-4.5c1.6-7.1,7.7-12.1,14.3-12.1
			c11.5,0,16.9,9.7,16.9,21.9C263.3,102.1,256.8,110.2,246.3,110.2z"/>
		<path d="M588.6,43.5c-11.1-15.4-32.5-18.6-48.4-2.8l-54.6,54.4l-27.9-28c-1.2-1.3-3.2-3.6-3.2-6.1c0-0.1,0-0.3,0-0.4
			c0.1-1.7,1.2-3.2,2.9-4.5c2.4-1.7,5.7-1,7.6,0.8l20.5,20.5c9.6-9.6,32.8-32.7,41.5-41.4c-2.7-2-6.1-3.7-6.8-4
			c-10.8-3.7-23-1-31,6.9l-3.8,3.7l-3.3-3.3c-10.3-10-26.9-12-39.2-3.1c-15.4,11-18.6,32.5-2.8,48.4l45.4,45.5
			c15.9-16,72-71.8,72-71.8c1.3-1.3,3.8-3.4,6.4-3.2c3.6,0.3,5.5,3.1,5.5,6.1c0,0,0,20.6,0,21.9h-19.2l-24.6,24.7h43.9v20.4h24.7
			v-67C594.3,55.1,592.5,48.9,588.6,43.5L588.6,43.5z"/>
	</g>
	<g>
		<path d="M203.9,191.4c-1,0.5-3.1,1.2-5.9,1.2c-6.1,0-10.1-4.2-10.1-10.5c0-6.3,4.3-10.8,10.9-10.8c2.2,0,4.1,0.5,5.1,1l-0.8,2.9
			c-0.9-0.5-2.3-1-4.3-1c-4.7,0-7.2,3.5-7.2,7.7c0,4.7,3,7.6,7.1,7.6c2.1,0,3.5-0.5,4.5-1L203.9,191.4z"/>
		<path d="M231.5,187.2c0,1.8,0.1,3.5,0.3,4.9h-3.4l-0.3-2.6H228c-1.2,1.6-3.3,3-6.3,3c-4.1,0-6.2-2.9-6.2-5.9
			c0-4.9,4.4-7.6,12.3-7.6v-0.4c0-1.7-0.5-4.7-4.6-4.7c-1.9,0-3.9,0.6-5.3,1.5l-0.8-2.4c1.7-1.1,4.1-1.8,6.7-1.8
			c6.2,0,7.8,4.2,7.8,8.3V187.2z M227.9,181.7c-4-0.1-8.6,0.6-8.6,4.6c0,2.4,1.6,3.5,3.5,3.5c2.7,0,4.4-1.7,4.9-3.4
			c0.1-0.4,0.2-0.8,0.2-1.2V181.7z"/>
		<path d="M246.4,162.2h3.7v29.9h-3.7V162.2z"/>
		<path d="M269.4,166c0,1.3-0.9,2.3-2.4,2.3c-1.3,0-2.2-1-2.2-2.3c0-1.3,1-2.3,2.3-2.3C268.5,163.7,269.4,164.7,269.4,166z
			 M265.3,192.1v-20.4h3.7v20.4H265.3z"/>
		<path d="M284.5,192.1v-17.6h-2.9v-2.8h2.9v-1c0-2.9,0.6-5.5,2.4-7.1c1.4-1.4,3.2-1.9,5-1.9c1.3,0,2.4,0.3,3.2,0.6l-0.5,2.9
			c-0.5-0.3-1.3-0.5-2.4-0.5c-3.2,0-4,2.8-4,5.9v1.1h4.9v2.8h-4.9v17.6H284.5z"/>
		<path d="M323.8,181.8c0,7.5-5.2,10.8-10.1,10.8c-5.5,0-9.8-4.1-9.8-10.5c0-6.8,4.5-10.8,10.1-10.8
			C319.8,171.3,323.8,175.5,323.8,181.8z M307.6,182c0,4.5,2.6,7.8,6.2,7.8c3.6,0,6.2-3.3,6.2-7.9c0-3.5-1.7-7.8-6.1-7.8
			C309.5,174,307.6,178.1,307.6,182z"/>
		<path d="M337.4,178.1c0-2.4-0.1-4.5-0.2-6.4h3.3l0.1,4h0.2c0.9-2.7,3.2-4.5,5.7-4.5c0.4,0,0.7,0,1,0.1v3.5
			c-0.4-0.1-0.7-0.1-1.3-0.1c-2.6,0-4.5,2-5,4.8c-0.1,0.5-0.2,1.1-0.2,1.7v10.9h-3.7V178.1z"/>
		<path d="M360.1,177.2c0-2.1,0-3.8-0.2-5.5h3.3l0.2,3.4h0.1c1-1.9,3.4-3.8,6.7-3.8c2.8,0,7.2,1.7,7.2,8.7v12.2h-3.7v-11.8
			c0-3.3-1.2-6-4.7-6c-2.4,0-4.3,1.7-5,3.8c-0.2,0.5-0.2,1.1-0.2,1.7v12.3h-3.7V177.2z"/>
		<path d="M396.6,166c0,1.3-0.9,2.3-2.4,2.3c-1.3,0-2.2-1-2.2-2.3c0-1.3,1-2.3,2.3-2.3C395.7,163.7,396.6,164.7,396.6,166z
			 M392.5,192.1v-20.4h3.7v20.4H392.5z"/>
		<path d="M425.6,187.2c0,1.8,0.1,3.5,0.3,4.9h-3.4l-0.3-2.6h-0.1c-1.1,1.6-3.3,3-6.2,3c-4.1,0-6.2-2.9-6.2-5.9
			c0-4.9,4.4-7.6,12.3-7.6v-0.4c0-1.7-0.5-4.7-4.6-4.7c-1.9,0-3.9,0.6-5.3,1.5l-0.8-2.4c1.7-1.1,4.1-1.8,6.7-1.8
			c6.2,0,7.8,4.2,7.8,8.3V187.2z M422,181.7c-4-0.1-8.6,0.6-8.6,4.6c0,2.4,1.6,3.5,3.5,3.5c2.7,0,4.4-1.7,4.9-3.4
			c0.1-0.4,0.2-0.8,0.2-1.2V181.7z"/>
	</g>
</g>
</svg>
